<svg
        xmlns="http://www.w3.org/2000/svg"
        viewBox="0 0 24 24"
        width="24"
        height="24"
>
    <path
            fill="currentColor"
            d="M10 3C5.03 3 1 7.03 1 12s4.03 9 9 9c4.97 0 9-4.03 9-9s-4.03-9-9-9zm0 16c-3.87 0-7-3.13-7-7s3.13-7 7-7 7 3.13 7 7-3.13 7-7 7z"
    />
    <path fill="none" d="M0 0h24v24H0z" />
    <path
            fill="currentColor"
            d="M15.5 14h-.79l-.28-.27A6.471 6.471 0 0 0 16 9.5 6.5 6.5 0 1 0 9.5 16c1.61 0 3.09-.59 4.23-1.57l.27.28v.79l5 4.99L20.49 19l-4.99-5zm-6 0C7.01 14 5 11.99 5 9.5S7.01 5 9.5 5 14 7.01 14 9.5 11.99 14 9.5 14z"
    />
</svg>